<?xml version="1.0" encoding="UTF-8" standalone="no"?>
<svg
   xmlns:dc="http://purl.org/dc/elements/1.1/"
   xmlns:cc="http://creativecommons.org/ns#"
   xmlns:rdf="http://www.w3.org/1999/02/22-rdf-syntax-ns#"
   xmlns:svg="http://www.w3.org/2000/svg"
   xmlns="http://www.w3.org/2000/svg"
   viewBox="0 0 48.882492 48.699947"
   height="48.699947"
   width="48.882492"
   version="1.1"
   id="svg4494">
  <metadata
     id="metadata4500">
    <rdf:RDF>
      <cc:Work
         rdf:about="">
        <dc:format>image/svg+xml</dc:format>
        <dc:type
           rdf:resource="http://purl.org/dc/dcmitype/StillImage" />
        <dc:title></dc:title>
      </cc:Work>
    </rdf:RDF>
  </metadata>
  <defs
     id="defs4498" />
  <path class="cog"
     id="path4504"
     d="m 15.946933,46.771008 c -0.64993,-1.2144 -1.92254,-1.89298 -3.28195,-1.75 -1.6534,0.1739 -2.306,-0.36532 -2.55565,-2.11164 -0.2507701,-1.75421 -0.8185801,-2.21879 -2.2532301,-1.84362 -1.8059636,0.818361 -1.6818256,0.648638 -2.45494,-2.8112 -0.12779,-0.55 -0.28425,-1.5625 -0.34769,-2.25 -0.0634,-0.6875 -0.8926519,-1.553034 -1.72376,-1.25 -2.45384437,0.894707 -2.35075654,0.45033 -0.95426,-2.60631 0.8067584,-1.765826 0.15946,-2.96804 -1.12832,-3.90969 -1.70002,-1.24309 -1.69058,-1.40679 0.20427,-3.53978 1.41622,-1.59422 1.6515074,-2.440634 0.73672,-2.67365 -2.39410567,-0.60983 -3.02810525,-1.586091 0.26988,-3.91657 0.8020338,-0.566747 1.5193233,-1.59028 1.25,-3.08285 -1.0906465,-6.0442822 0.819674,-2.80907 2.9561635,-4.247867 2.6532434,-1.7867984 3.8239966,-4.0232838 1.2739565,1.823727 -0.4126747,0.946226 1.38986,2.44534 3.3021701,3.35726 1.8162,0.86608 9.016917,7.78435 11.260984,9.826216 l 3.973313,3.6153 -0.397137,8.787134 c -0.387991,8.584771 -0.22366,8.6956 6.78259,5.51704 2.76294,-1.25348 5.581588,-4.215714 6.013566,-3.505279 1.892697,3.112752 1.140108,3.326574 -2.927417,4.38122 -1.795417,0.465524 -3.008069,0.363719 -3.008069,1.506669 0,2.30084 -1.65069,2.90128 -3.98984,1.45131 -1.72058,-1.06655 -2.22429,-1.03779 -2.97564,0.16991 -0.79117,1.27171 -1.24618,1.27171 -3.63312,0 -2.1217,-1.13041 -2.82203,-1.17574 -3.14837,-0.20379 -0.61869,1.84266 -2.03712,1.52194 -3.24422,-0.73354 z m 6.77175,-8.53407 c -0.26534,-4.13469 -0.72148,-7.75664 -1.01363,-8.04879 -0.674,-0.674 -13.7669301,5.738 -13.7669301,6.74208 0,1.40197 4.4943001,5.06226 8.5000001,6.92265 6.61347,3.07154 6.8259,2.88159 6.28056,-5.61594 z m -9.68951,-8.62728 c 3.24992,-2.27969 5.88945,-4.41719 5.86563,-4.75 -0.06171,-0.86184 -11.3715501,-8.10511 -12.6555501,-8.10511 -1.36407,0 -2.27382,3.40085 -2.27382,8.5 0,4.98089 0.9027,8.5 2.18037,8.5 0.53593,0 3.63345,-1.8652 6.8833701,-4.14489 z m 26.33381,9.22792 c 1.04291,-1.15241 1.71147,-2.26478 1.48568,-2.47193 -0.2258,-0.20716 -3.64633,-1.9966 -7.60118,-3.97655 -6.47461,-3.24144 -8.274754,-3.053048 -8.464065,-4.008458 -0.378767,-1.911548 1.295835,0.344734 -0.845295,0.471554 -1.65605,0.0981 -3.920336,-4.750938 -5.51081,-6.2415 -5.387207,-5.04879 1.888921,0.289833 1.888921,0.289833 0,0 0.951419,-2.142179 1.295109,-2.485869 0.34369,-0.34369 0.84642,-4.07678 1.11718,-8.29577 l 0.49229,-7.6708808 -3.37498,0.675 c -1.85624,0.37125 -5.03086,1.7708 -7.05471,3.11012 -2.9535901,1.9545898 -4.3577189,2.4307098 -4.7576901,1.13627 -1.1056891,-3.578377 -0.42167,-3.6722305 2.4547301,-2.61485 1.233534,0.4534539 2.869766,-0.727785 2.69955,-1.84644 -0.43219,-2.8403383 -0.128691,-3.0465914 3.75868,-1.36565 2.116253,0.9150907 2.885211,0.2216161 2.57476,-0.65356 -0.88041,-2.48192046 0.541659,-1.93072175 2.5659,-0.0547 1.59032,0.85112 3.558415,1.3461739 4.0108,-0.72425 0.630899,-2.88742744 0.99467,-2.94822434 3.90945,0.67029 1.387993,1.7231051 2.629978,2.2863431 2.69985,1.27705 0.199907,-2.8876353 2.053611,-2.0364022 3.52029,1.94138 0.396503,1.0753554 1.943169,2.5211513 2.89899,1.5 1.893472,-2.02289 2.30296,-0.7362005 2.38131,1.25583 0.145421,3.6972858 0.52968,4.0710008 2.18038,3.7938408 1.41752,-0.23801 1.69035,0.32363 1.43603,2.95616 -0.23332,2.41514 0.0878,3.25 1.25,3.25 1.85289,0 2.05698,2.10699 0.36772,3.79625 -0.92834,0.92834 -0.76334,1.51281 0.73672,2.60968 1.82401,1.33375 1.83721,1.51926 0.23414,3.29063 -1.00937,1.11534 -1.47419,2.73626 -1.1453,3.99391 0.40435,1.54625 -0.004,2.2937 -1.51542,2.77338 -1.37697,0.43704 -1.99286,1.38905 -1.84142,2.84641 0.18214,1.75289 -0.475646,1.769835 -2.75815,2.5289 -2.97177,0.988286 -5.498296,2.118823 -1.08946,-1.75613 z m 4.59989,-7.64813 c 1.25339,-3.29667 1.25001,-9.58204 -0.007,-12.88806 l -0.9822,-2.58337 -6.497,4.26827 c -3.57335,2.34754 -6.50636,4.58727 -6.5178,4.97716 -0.023,0.78349 11.0193,8.65968 12.25394,8.74043 0.42611,0.0279 1.21361,-1.10362 1.75,-2.51443 z m -6.74026,-15.00672 c 2.27719,-1.10204 3.66909,-2.43071 3.49475,-3.33597 -0.40694,-2.113101 -7.64083,-6.9494608 -11.52924,-7.7081108 l -3.25,-0.6341 0.0137,5.8749998 c 0.008,3.231251 0.68643,9.595553 0.689647,10.858628 0,0 1.036203,-0.436167 10.581193,-5.055447 z"
     style="fill:#090202"/>
</svg>
