<?xml version="1.0" encoding="UTF-8" standalone="no"?>
<!-- Created with Inkscape (http://www.inkscape.org/) -->

<svg
   xmlns:dc="http://purl.org/dc/elements/1.1/"
   xmlns:cc="http://creativecommons.org/ns#"
   xmlns:rdf="http://www.w3.org/1999/02/22-rdf-syntax-ns#"
   xmlns:svg="http://www.w3.org/2000/svg"
   xmlns="http://www.w3.org/2000/svg"
   xmlns:sodipodi="http://sodipodi.sourceforge.net/DTD/sodipodi-0.dtd"
   xmlns:inkscape="http://www.inkscape.org/namespaces/inkscape"
   width="163.75"
   height="160"
   viewBox="0 0 163.75 160"
   id="svg4143"
   version="1.1"
   inkscape:version="0.91 r13725"
   inkscape:export-filename="/home/papakos/Desktop/nikospappascv/website/images/Duth_logo.png"
   inkscape:export-xdpi="72"
   inkscape:export-ydpi="72"
   sodipodi:docname="duthLogo.svg">
  <defs
     id="defs4145" />
  <sodipodi:namedview
     id="base"
     pagecolor="#ffffff"
     bordercolor="#666666"
     borderopacity="1.0"
     inkscape:pageopacity="0.0"
     inkscape:pageshadow="2"
     inkscape:zoom="1.979899"
     inkscape:cx="76.896471"
     inkscape:cy="94.432497"
     inkscape:document-units="px"
     inkscape:current-layer="layer1"
     showgrid="false"
     fit-margin-top="0"
     fit-margin-left="0"
     fit-margin-right="0"
     fit-margin-bottom="0"
     units="px"
     inkscape:window-width="1366"
     inkscape:window-height="709"
     inkscape:window-x="0"
     inkscape:window-y="27"
     inkscape:window-maximized="1" />
  <metadata
     id="metadata4148">
    <rdf:RDF>
      <cc:Work
         rdf:about="">
        <dc:format>image/svg+xml</dc:format>
        <dc:type
           rdf:resource="http://purl.org/dc/dcmitype/StillImage" />
        <dc:title></dc:title>
      </cc:Work>
    </rdf:RDF>
  </metadata>
  <g
     inkscape:label="Layer 1"
     inkscape:groupmode="layer"
     id="layer1"
     transform="translate(-366.69647,-278.07651)">
    <path
       style="fill:#8d0000;fill-opacity:1"
       d="m 432.32147,435.05759 c -24.76014,-5.73616 -44.26907,-21.23752 -54.8261,-43.5636 -5.63387,-11.91453 -7.4853,-20.39073 -7.4358,-34.04248 0.0799,-22.03109 7.27684,-38.91532 23.48805,-55.10347 16.25776,-16.23464 31.81482,-22.38765 56.27385,-22.25701 11.37795,0.0608 15.49185,0.64572 23.84694,3.39074 23.45885,7.70731 42.48237,27.76298 50.06856,52.78509 3.07971,10.15806 3.0611,33.24475 -0.0351,43.6193 -7.45224,24.96991 -26.71204,45.25124 -50.03339,52.68714 -12.48285,3.98008 -30.27575,5.04915 -41.34699,2.48429 z m 34.26475,-2.65723 c 14.43122,-3.40165 23.4388,-8.64195 35.14814,-20.44794 11.82607,-11.92372 16.07261,-19.29312 20.02703,-34.75478 4.49678,-17.58219 2.32728,-37.80929 -5.89961,-55.00472 -5.02682,-10.50681 -22.25254,-27.54022 -33.00655,-32.63807 -11.75682,-5.57323 -21.31021,-7.72834 -34.25901,-7.72834 -13.14228,0 -26.21477,3.15582 -37.09551,8.9552 -8.8002,4.69045 -25.80067,21.86785 -30.1377,30.45133 -11.67571,23.10763 -11.89335,47.97945 -0.62866,71.84347 5.08285,10.76791 22.08027,27.8822 32.83712,33.06291 16.42062,7.9085 36.14354,10.23774 53.01475,6.26094 z m -39.55185,-23.07385 c 0.19508,-13.37555 -0.19557,-14.28454 -6.07355,-14.13244 -3.33776,0.0864 -5.78187,-0.69538 -7.70185,-2.46342 -1.54688,-1.42446 -2.8125,-2.12344 -2.8125,-1.5533 0,0.57015 -1.125,0.0185 -2.5,-1.22584 -3.11616,-2.82008 -3.11427,-3.88403 0.0183,-10.36782 3.0911,-6.39784 2.34534,-14.67437 -1.41075,-15.65661 -3.28293,-0.8585 -2.94945,-3.87186 1.25315,-11.32341 2.91804,-5.17392 3.71527,-8.32064 4.15551,-16.40216 0.43008,-7.89497 1.36597,-11.71034 4.44596,-18.125 3.87311,-8.06649 9.03778,-13.42991 9.03778,-9.38559 0,1.03707 0.91262,1.88559 2.02806,1.88559 1.63387,0 1.73443,-0.35379 0.51738,-1.82024 -0.83086,-1.00114 -1.14779,-2.40739 -0.70428,-3.125 1.06014,-1.71535 6.90884,-1.69039 6.90884,0.0295 0,0.76539 -1.06586,0.99595 -2.5,0.54077 -2.51513,-0.79827 -3.52519,1.09385 -1.31358,2.46071 0.65253,0.40328 0.96335,3.79656 0.69071,7.5406 -0.57454,7.88974 0.94864,9.66361 4.81145,5.60335 1.47753,-1.55304 1.98329,-2.43186 1.12392,-1.95292 -2.11777,1.18026 -1.98998,-1.11585 0.16148,-2.9014 1.37169,-1.13841 1.84127,-0.81722 2.29795,1.57178 0.44121,2.30802 -0.26013,3.49528 -3.03197,5.13265 -4.11562,2.43116 -6.81429,1.17409 -7.47742,-3.48305 -0.28966,-2.03428 -1.17684,-2.67126 -3.51254,-2.52194 -5.80063,0.37082 -7.94364,1.25263 -8.8859,3.65636 -1.67909,4.28343 -1.17333,5.51636 2.3234,5.66386 2.23721,0.0944 2.6505,0.34907 1.18362,0.72944 -1.78923,0.46395 -1.95095,0.94944 -0.78444,2.355 1.15051,1.38628 1.08353,1.77056 -0.30862,1.77056 -0.97794,0 -2.44837,-0.56719 -3.26764,-1.26042 -0.81927,-0.69323 -1.21791,-0.88561 -0.88585,-0.42751 0.33206,0.4581 -3.5e-4,1.56079 -0.73869,2.45043 -1.49799,1.80497 -0.3115,7.14809 1.35815,6.11619 1.53135,-0.94643 10.13993,4.39328 9.29274,5.76407 -0.39024,0.63141 -1.17421,0.86082 -1.74216,0.50981 -1.18603,-0.733 -3.06227,2.95734 -2.68696,5.28493 0.13857,0.85937 -0.33522,1.5625 -1.05285,1.5625 -1.28537,0 -1.78539,-3.03738 -1.36935,-8.31811 0.1167,-1.48121 -0.38354,-3.06128 -1.11164,-3.51127 -0.7281,-0.44999 -1.32381,-0.18927 -1.32381,0.57938 0,0.76865 -0.5625,1.0499 -1.25,0.625 -0.71489,-0.44182 -1.25,0.66547 -1.25,2.58657 0,1.84751 -1.7547,6.42601 -3.89933,10.17444 -3.08207,5.38689 -3.5733,7.12171 -2.34375,8.27716 1.18989,1.11818 1.69026,1.09452 2.1285,-0.10067 0.3151,-0.85938 1.93229,-1.5625 3.59375,-1.5625 1.66145,0 3.02083,-0.5625 3.02083,-1.25 0,-0.6875 0.54485,-1.25 1.21077,-1.25 2.11335,0 0.026,3.33466 -3.15207,5.03548 -1.68228,0.90033 -3.0587,2.41886 -3.0587,3.37452 0,0.95565 0.5625,1.3899 1.25,0.965 0.6875,-0.4249 1.25,-0.17685 1.25,0.55123 0,0.72807 0.5957,1.32377 1.32377,1.32377 0.72807,0 0.97613,-0.5625 0.55123,-1.25 -0.4249,-0.6875 -0.21809,-1.25 0.45957,-1.25 0.67767,0 1.4386,-0.98438 1.69096,-2.1875 0.4016,-1.91466 0.64608,-1.84849 1.96008,0.53054 0.82568,1.49493 1.7023,3.74493 1.94803,5 0.24573,1.25508 1.10446,3.68821 1.90829,5.40696 l 1.46152,3.125 -0.49098,-3.125 c -0.27004,-1.71875 -0.85841,-3.98863 -1.3075,-5.04418 -0.56195,-1.32083 -0.0659,-1.97572 1.59121,-2.10054 2.56924,-0.19354 4.30175,3.29395 3.95577,7.96283 -0.10976,1.48121 0.4777,3.11169 1.30547,3.62328 1.07832,0.66643 1.3256,-0.008 0.87215,-2.38061 -0.34809,-1.82093 -0.14839,-3.31078 0.44377,-3.31078 0.59216,0 1.03712,-1.26563 0.9888,-2.8125 -0.0838,-2.68363 -0.13708,-2.69795 -1.16214,-0.3125 -1.02506,2.38544 -1.07831,2.37113 -1.16214,-0.3125 -0.18157,-5.81239 3.439,-1.86413 6.59097,7.1875 0.4837,1.38906 0.87448,1.1461 1.50783,-0.9375 0.47021,-1.54688 1.63306,-2.8125 2.58413,-2.8125 0.95106,0 1.72921,-0.5625 1.72921,-1.25 0,-0.6875 -0.84375,-1.25 -1.875,-1.25 -1.03125,0 -1.91066,-0.98438 -1.95423,-2.1875 -0.057,-1.57264 -0.46184,-1.30912 -1.4404,0.9375 -1.15652,2.65515 -1.44241,2.78512 -1.90149,0.86448 -0.83442,-3.49094 0.67118,-6.22786 2.94583,-5.355 1.43056,0.54896 1.79629,0.22853 1.2787,-1.1203 -0.97664,-2.54508 0.0562,-2.37772 3.87776,0.62833 4.36355,3.43237 5.26098,1.99901 1.13975,-1.82041 -1.82651,-1.69275 -3.32092,-3.75427 -3.32092,-4.58115 0,-0.95221 0.85834,-0.72663 2.34114,0.61529 2.20859,1.99874 2.37645,1.98369 2.96467,-0.26566 0.41925,-1.6032 0.004,-2.33624 -1.26911,-2.23747 -1.04094,0.0808 -2.14885,-0.58077 -2.462,-1.47013 -0.41424,-1.17643 0.31543,-1.39495 2.67796,-0.80199 3.83259,0.96192 4.51244,-1.38599 0.74734,-2.58099 -2.87932,-0.91386 -3.37375,-3.125 -0.69877,-3.125 0.99067,0 2.19928,-0.64406 2.68578,-1.43124 0.61058,-0.98794 -0.14089,-1.23521 -2.42623,-0.79834 -1.82093,0.3481 -3.31078,0.1484 -3.31078,-0.44376 0,-0.59216 1.94301,-1.07666 4.3178,-1.07666 4.25694,0 4.3098,0.0661 3.75068,4.6875 -0.35509,2.935 -0.15988,4.05574 0.52215,2.99769 0.86262,-1.3382 1.48039,-1.13141 2.96897,0.99384 1.62433,2.31906 1.98522,2.40865 2.65645,0.65943 0.78481,-2.04516 -2.06766,-6.07018 -3.3752,-4.76265 -0.38872,0.38873 -0.61723,-0.48181 -0.5078,-1.93452 0.22446,-2.97981 2.16695,-3.66673 2.16695,-0.76629 0,1.03125 0.5625,1.875 1.25,1.875 2.05718,0 1.41888,-3.27389 -1.25246,-6.42402 -1.37635,-1.62304 -2.21443,-2.10723 -1.8624,-1.07598 0.50433,1.47741 -0.62165,1.91746 -5.31005,2.07524 -5.04869,0.16991 -5.38199,0.0503 -2.20009,-0.78961 l 3.75,-0.98984 -4.375,-0.19219 -4.375,-0.19219 3.10931,-1.72103 c 1.71013,-0.94657 3.53825,-1.45594 4.0625,-1.13194 0.52426,0.32401 0.95319,-0.0205 0.95319,-0.76561 0,-1.79749 -5.72812,-3.91463 -8.11415,-2.99903 -1.03722,0.39802 -1.88585,0.14787 -1.88585,-0.5559 0,-0.70376 0.70312,-1.56328 1.5625,-1.91005 0.95028,-0.38345 0.72263,-0.66915 -0.58102,-0.72917 -1.17894,-0.0543 -2.6935,-1.12633 -3.36571,-2.38235 -0.92895,-1.73577 -0.63618,-2.78543 1.22031,-4.375 3.01167,-2.57867 4.1532,-2.66935 3.22725,-0.25636 -0.38728,1.00923 -0.22515,2.131 0.36028,2.49282 1.3839,0.85529 2.65284,-2.44194 1.48666,-3.86297 -0.4919,-0.5994 -0.52776,-3.33982 -0.0797,-6.08982 0.44807,-2.75 0.89449,-4.01563 0.99205,-2.8125 0.0976,1.20312 0.75967,2.1875 1.47136,2.1875 0.85354,0 0.812,-0.90058 -0.12203,-2.64583 -1.1204,-2.0935 -1.01626,-3.04557 0.49885,-4.56069 1.61909,-1.61908 2.50678,-1.66967 5.74703,-0.32752 2.10769,0.87304 3.83217,2.0816 3.83217,2.68569 0,1.41587 -0.87655,1.38618 -3.70092,-0.12538 -1.70067,-0.91017 -2.72057,-0.68854 -3.98032,0.86494 -1.43911,1.77466 -1.42691,1.92781 0.0812,1.01868 1.35983,-0.81977 1.57239,-0.5422 0.90888,1.18686 -0.7321,1.90783 -0.57163,2.01253 1.03758,0.677 1.34129,-1.11317 1.90362,-1.15748 1.90362,-0.15001 0,0.78642 -1.40625,2.07059 -3.125,2.8537 -2.50009,1.13912 -3.125,2.33358 -3.125,5.9732 0,2.50215 0.675,5.22436 1.5,6.04936 0.83333,0.83333 0.94444,1.5 0.25,1.5 -0.6875,0 -1.925,-0.675 -2.75,-1.5 -1.08401,-1.08401 -1.5,-1.10366 -1.5,-0.0709 0,0.78602 1.24521,2.3013 2.76712,3.36729 2.46672,1.72776 2.88226,1.73244 3.82768,0.0431 0.65976,-1.17892 0.32261,-3.37435 -0.89212,-5.80934 -2.7816,-5.57585 -2.45511,-7.18957 1.81813,-8.98633 2.07395,-0.87203 3.38645,-1.96988 2.91667,-2.43966 -0.46978,-0.46978 0.11655,-0.85415 1.30296,-0.85415 2.27255,0 1.88563,1.37098 -1.49931,5.3125 -1.30288,1.51711 -1.41354,2.1875 -0.36109,2.1875 0.83462,0 1.11614,0.64941 0.62559,1.44313 -0.55703,0.9013 -0.34241,1.10354 0.57162,0.53863 0.80494,-0.49748 1.13745,-1.43211 0.73891,-2.07696 -0.39854,-0.64485 0.18561,-1.52174 1.2981,-1.94865 1.12214,-0.4306 1.90947,-1.95715 1.76837,-3.42867 -0.13989,-1.45886 0.16039,-3.60992 0.66728,-4.78012 1.26203,-2.9135 -0.33833,-5.09427 -3.19098,-4.34828 -1.29741,0.33928 -2.35893,0.10703 -2.35893,-0.51611 0,-2.60323 -6.30954,-0.88112 -9.89001,2.69935 -2.10778,2.10778 -4.34105,3.51791 -4.96282,3.13364 -1.33504,-0.82511 -3.05794,5.10813 -1.98664,6.84153 0.40536,0.65588 -0.0692,1.19251 -1.05451,1.19251 -1.31317,0 -1.75007,-1.50327 -1.63627,-5.63002 0.11201,-4.06219 0.60845,-5.45857 1.78267,-5.01432 0.9173,0.34704 1.27295,0.0421 0.81505,-0.69875 -1.09341,-1.76917 3.15131,-6.31669 4.91209,-5.26249 0.76749,0.45951 0.6129,-0.12895 -0.34354,-1.3077 -1.06958,-1.31818 -2.75368,-1.88918 -4.375,-1.48336 -2.40831,0.60282 -2.39139,0.53402 0.19587,-0.79644 2.41317,-1.24094 3.33172,-1.01087 6.21218,1.55591 1.85915,1.65669 2.6253,2.02779 1.70255,0.82467 -2.01022,-2.62101 -1.03141,-2.79782 2.73486,-0.494 2.28225,1.39604 3.64673,1.41346 7.76852,0.0991 l 5,-1.59436 -5,0.0467 c -2.75,0.0257 -6.96875,-0.52385 -9.375,-1.22119 l -4.375,-1.26789 3.98873,-0.12795 c 2.1938,-0.0704 4.33637,0.43454 4.76127,1.12204 0.4249,0.6875 1.33504,1.25 2.02254,1.25 0.6875,0 0.97501,-0.44494 0.63891,-0.98876 -0.3361,-0.54382 1.36141,-0.75849 3.77224,-0.47704 2.41083,0.28145 4.66793,1.25338 5.01577,2.15984 0.34784,0.90646 1.4368,1.33944 2.41991,0.96219 2.42367,-0.93005 5.29263,1.66428 7.38906,6.68176 0.95645,2.28911 2.33021,4.16201 3.05279,4.16201 1.90286,0 1.6115,-1.9468 -0.56122,-3.75 -3.64325,-3.02363 -1.81031,-3.50749 3.15803,-0.83365 5.45061,2.93339 7.47362,7.18831 4.89496,10.29541 -0.88064,1.06112 -1.08408,1.80826 -0.45208,1.66032 0.632,-0.14794 2.15772,0.17107 3.3905,0.70889 3.11253,1.35792 4.48197,-0.43636 1.81912,-2.38348 -1.20204,-0.87895 -2.18553,-2.34849 -2.18553,-3.26564 0,-0.91715 1.37679,0.19858 3.05953,2.47941 3.44778,4.67321 5.31128,11.25375 3.52064,12.43239 -0.65288,0.42974 -1.55641,2.67806 -2.00784,4.99627 -0.71095,3.65081 -0.56996,4.00674 1.05344,2.65944 1.03083,-0.85551 1.87423,-1.22563 1.87423,-0.82248 0,0.40315 -2.09933,2.15952 -4.66517,3.90306 l -4.66517,3.17006 4.04017,0 c 2.59832,0 4.04017,-0.61452 4.04017,-1.72194 0,-0.94707 0.89165,-2.46195 1.98144,-3.3664 1.22571,-1.01724 1.78873,-2.95749 1.47618,-5.08704 -0.2779,-1.89342 -0.0339,-3.15126 0.54225,-2.79519 0.57613,0.35607 0.99014,2.71699 0.92002,5.24648 -0.0701,2.5295 0.25853,6.10665 0.73033,7.94923 0.7117,2.7795 0.0764,4.13153 -3.72953,7.9375 -2.52305,2.52305 -4.22019,4.95298 -3.77142,5.39986 0.44876,0.44687 1.90657,-0.53281 3.23958,-2.17708 1.33301,-1.64427 2.7146,-2.69863 3.0702,-2.34304 0.7283,0.7283 -6.59989,7.20762 -8.1519,7.20762 -1.24861,0 -4.40106,-3.69221 -3.33521,-3.90625 0.42793,-0.0859 1.41988,-0.22656 2.20433,-0.3125 0.78444,-0.0859 2.02642,-1.1077 2.75995,-2.27058 1.74379,-2.76448 -1.63115,-6.63608 -7.46237,-8.56055 -5.20706,-1.71849 -5.32066,-3.70299 -0.47385,-8.2776 4.3835,-4.13733 4.70655,-6.66938 1.25,-9.79752 -2.72882,-2.46955 -3.19996,-1.76853 -1.25449,1.86661 1.70522,3.18624 -3.9561,10.00839 -8.3054,10.00839 -1.69821,0 -2.76138,0.52793 -2.36259,1.17317 0.39878,0.64525 -0.17433,1.6765 -1.27357,2.29167 -1.51552,0.84813 -1.06618,1.11849 1.85888,1.11849 2.3227,0 5.09488,1.16244 6.96742,2.9216 1.71044,1.60688 3.46033,2.57116 3.88863,2.14286 0.42831,-0.42831 1.58242,0.0249 2.5647,1.00722 1.46849,1.46848 1.50593,2.29117 0.21063,4.62798 -0.86644,1.5631 -1.46143,3.24709 -1.32222,3.74219 0.42924,1.52647 -4.8422,3.73496 -7.34978,3.07922 -1.30472,-0.3412 -2.37221,-0.136 -2.37221,0.45598 0,1.73024 8.59468,2.87463 10.39125,1.38362 0.88761,-0.73666 2.7844,-1.03327 4.21508,-0.65913 1.79503,0.46941 3.21877,-0.20141 4.5937,-2.1644 1.09586,-1.56455 2.31011,-2.527 2.69832,-2.13878 1.17317,1.17316 -9.03567,11.01831 -11.42535,11.01831 -1.70044,0 -1.87836,0.34464 -0.75691,1.46609 1.91444,1.91444 7.78391,-0.58471 7.78391,-3.31429 0,-1.04599 0.54485,-1.9018 1.21077,-1.9018 3.2932,0 -2.58967,7.37746 -5.94889,7.46025 -2.31343,0.057 -9.03741,-5.15767 -8.26403,-6.40903 0.35733,-0.57817 -0.18643,-1.05122 -1.20835,-1.05122 -1.02193,0 -2.90462,-1.33049 -4.18375,-2.95665 -1.27914,-1.62616 -3.43073,-3.30737 -4.78132,-3.73603 -3.43703,-1.09088 -6.30767,-5.83161 -4.28729,-7.08028 0.83467,-0.51585 1.25412,-1.70609 0.93213,-2.64497 -0.8398,-2.44874 -5.82696,6.06711 -5.12504,8.75128 0.30779,1.17697 -0.6,3.18939 -2.01731,4.47204 -1.41731,1.28264 -2.57692,3.30102 -2.57692,4.48529 0,2.44383 -3.38755,5.73844 -4.62646,4.49953 -0.44882,-0.44882 0.15789,-1.52819 1.34824,-2.3986 1.43819,-1.05163 1.86433,-2.36422 1.27022,-3.91246 -0.86527,-2.25485 -0.94799,-2.25616 -2.56803,-0.0406 -0.92069,1.2591 -1.67397,3.55483 -1.67397,5.1016 0,1.54677 -0.4946,3.118 -1.09912,3.49161 -1.54533,0.95507 -2.64801,5.71825 -1.32378,5.71825 0.60118,0 1.93225,-1.54688 2.95793,-3.4375 1.02568,-1.89063 1.87878,-2.59375 1.89578,-1.5625 0.0513,3.11159 -1.53097,4.6512 -8.24645,8.0242 -3.52856,1.77229 -6.73964,4.06688 -7.13573,5.09908 -1.13485,2.95736 -2.94602,2.19672 -3.65976,-1.53701 -0.6104,-3.19309 -0.53903,-3.25843 1.10428,-1.01109 1.88333,2.57562 2.04764,2.18738 2.35953,-5.57518 0.11049,-2.75 -0.26116,-5 -0.82589,-5 -0.56474,0 -1.02679,1.46643 -1.02679,3.25874 0,2.3831 -0.50382,3.0654 -1.875,2.53923 -1.03125,-0.39573 -1.91829,-0.31529 -1.97121,0.17876 -0.56339,5.26026 -0.3291,9.02344 0.56177,9.02336 0.5998,-5e-5 0.42412,0.80291 -0.39041,1.78436 -1.21405,1.46284 -0.84738,1.88164 2.03444,2.32364 3.12726,0.47965 3.23339,0.63631 0.96115,1.4188 -2.27645,0.78395 -2.50326,1.72083 -2.08541,8.61387 0.25786,4.25383 -0.0943,9.14049 -0.78266,10.85924 -0.98928,2.47024 -1.22285,1.1607 -1.11477,-6.25 z M 421.6714,392.4213 c -0.86965,-1.04786 -1.8386,-1.64779 -2.15323,-1.33316 -0.86687,0.86687 0.89443,3.23837 2.40513,3.23837 0.82886,0 0.73404,-0.71723 -0.2519,-1.90521 z m -3.04644,-2.23788 c 0.39936,-1.5912 0.62472,-3.41932 0.50079,-4.0625 -0.74927,-3.88854 0.2179,-9.35099 1.51385,-8.55005 0.87388,0.54009 1.10463,0.34418 0.58497,-0.49663 -0.47199,-0.7637 -1.67916,-1.0735 -2.6826,-0.68845 -1.02008,0.39145 -2.16358,-0.18372 -2.5937,-1.30459 -1.10092,-2.86895 -2.40149,-2.4907 -4.92654,1.43281 l -2.21226,3.4375 2.70116,-2.38817 c 1.48564,-1.31349 3.01591,-2.07342 3.4006,-1.68873 0.38469,0.38468 -1.30626,2.22925 -3.75766,4.09903 -2.45141,1.86977 -4.43717,4.3172 -4.41281,5.43873 0.0307,1.41229 0.59847,1.07848 1.84701,-1.08586 l 1.80271,-3.125 -0.43565,3.75 c -0.23961,2.0625 -0.18577,3.04687 0.11965,2.1875 0.93887,-2.6418 2.87199,-1.73032 2.87199,1.35417 0,5.25803 4.45054,6.58277 5.67849,1.69024 z m -3.66975,-2.83414 c -1.34263,-3.49884 -0.81036,-7.73549 1.06212,-8.45403 1.4882,-0.57107 1.57889,-0.16766 0.4964,2.20815 -0.94952,2.08396 -0.92174,3.65937 0.0981,5.56499 0.78243,1.46197 0.90048,2.65812 0.26235,2.65812 -0.63814,0 -1.50168,-0.88976 -1.91898,-1.97723 z m 11.2196,1.52044 c 0.2866,-2.68818 0.0473,-2.83411 -2.59963,-1.58498 -3.08405,1.45544 -3.00381,3.29177 0.14383,3.29177 1.14623,0 1.52551,0.60731 0.97582,1.5625 -0.49454,0.85937 -0.43489,1.14152 0.13257,0.627 0.56745,-0.51453 1.17379,-2.26786 1.34741,-3.89629 z m -4.87445,-6.02759 c -0.39903,-0.99716 -0.69523,-0.70097 -0.75521,0.75521 -0.0543,1.31771 0.24116,2.05599 0.65653,1.64063 0.41536,-0.41537 0.45977,-1.49349 0.0987,-2.39584 z m 4.14611,-0.39062 c 0,-1.03125 0.5957,-1.875 1.32377,-1.875 0.72807,0 0.93901,-0.62255 0.46875,-1.38345 -0.62027,-1.00363 -1.09695,-0.99201 -1.73621,0.0423 -0.48465,0.78419 -1.67996,1.21768 -2.65625,0.96333 -0.97628,-0.25436 -1.35319,-0.22654 -0.83756,0.0618 0.51562,0.28837 0.9375,1.32118 0.9375,2.29514 0,0.97395 0.5625,1.77083 1.25,1.77083 0.6875,0 1.25,-0.84375 1.25,-1.875 z m 15.41473,-0.64414 c 0.93379,-0.0122 0.84705,-0.40767 -0.2406,-1.09679 -2.12637,-1.34724 -6.65679,-0.27179 -5.65863,1.34326 0.40556,0.65621 1.57023,0.87351 2.58817,0.48289 1.01794,-0.39062 2.50792,-0.71883 3.31106,-0.72936 z m -22.99287,-14.18753 c -1.18864,-1.09486 -1.35531,-0.89613 -0.73083,0.8714 0.44493,1.25936 0.88557,3.22811 0.9792,4.375 0.0936,1.1469 0.4225,0.75477 0.73083,-0.8714 0.30833,-1.62617 -0.13231,-3.59492 -0.9792,-4.375 z m 27.57814,3.55188 c 0,-0.96649 -1.07414,-2.33211 -2.38697,-3.03472 -2.5278,-1.35284 -2.71215,-0.42751 -0.79585,3.99483 1.04981,2.42271 3.18282,1.77928 3.18282,-0.96011 z m 39.32162,-3.00884 c 0.39554,-0.63999 0.2451,-1.45661 -0.3343,-1.8147 -1.47495,-0.91157 -6.48732,0.53645 -6.48732,1.87412 0,1.47292 5.90638,1.42148 6.82162,-0.0594 z m -29.81911,-6.92399 c 1.63036,-2.22998 1.53225,-2.57226 -1.03854,-3.62329 -4.27529,-1.74791 -5.96397,-1.94002 -5.96397,-0.67849 0,0.62667 1.125,1.1394 2.5,1.1394 2.69861,0 3.41305,3.03816 1.05686,4.49436 -0.84271,0.52083 -1.10573,0.34598 -0.63218,-0.42024 0.44603,-0.72169 -0.0296,-1.63469 -1.05686,-2.02891 -1.0273,-0.39421 -1.86782,-0.49916 -1.86782,-0.23321 0,0.26594 -0.29759,1.25903 -0.6613,2.20686 -1.05384,2.74624 5.57114,2.00587 7.66381,-0.85648 z m 23.38376,-0.46673 c 0.5562,-0.10761 0.70302,-0.69442 0.32626,-1.30402 -0.37675,-0.6096 0.15255,-1.80347 1.17623,-2.65305 2.49664,-2.07203 2.36343,-4.98858 -0.22783,-4.98858 -1.149,0 -3.0823,-0.89885 -4.29624,-1.99745 -2.50411,-2.2662 -5.11385,-1.35633 -4.05136,1.41248 0.38728,1.00923 0.0159,1.83497 -0.82532,1.83497 -0.95739,0 -1.30601,-1.16885 -0.93207,-3.125 0.34837,-1.82237 0.0183,-3.11702 -0.79178,-3.10586 -2.61821,0.0361 -4.20078,1.85908 -5.06235,5.83144 -1.23515,5.69478 2.40237,7.54519 8.95714,4.55654 7.11317,-3.24326 7.46241,-3.28318 4.26507,-0.48744 -1.62304,1.41918 -3.73241,2.58032 -4.6875,2.58032 -0.95509,0 -1.73652,0.47864 -1.73652,1.06364 0,0.89591 4.18287,1.09853 7.88627,0.38201 z m -14.13231,-6.13315 c 0.002,-0.51563 2.2146,-0.96359 4.91648,-0.99549 2.70188,-0.0319 4.63565,0.38999 4.29726,0.9375 -0.78072,1.26324 -9.21906,1.31635 -9.21374,0.058 z m -3.7731,-11.45833 c 0.0253,-5.65159 -0.71518,-4.57157 -1.59813,2.33086 -0.46013,3.59699 -0.30694,4.92098 0.43387,3.75 0.62982,-0.99552 1.15373,-3.73191 1.16426,-6.08086 z m 31.44316,3.584 2.95098,-2.56183 -4.0625,1.96893 c -3.99756,1.93746 -5.13622,3.15473 -2.95098,3.15473 0.61134,0 2.43946,-1.15282 4.0625,-2.56183 z m -7.99482,-5.25067 c 1.75059,-2.21426 2.69278,-8.36908 1.40316,-9.16611 -0.5953,-0.36791 -1.08236,0.45737 -1.08236,1.83396 0,1.37659 -1.26563,3.44775 -2.8125,4.60257 -1.89859,1.41741 -2.10168,1.85937 -0.625,1.36011 2.4664,-0.83386 3.04861,1.12617 0.625,2.10412 -0.98178,0.39615 -1.03866,0.66716 -0.15306,0.72917 0.7752,0.0543 1.96534,-0.60445 2.64476,-1.46382 z m -18.63689,-2.34231 c -1.30716,-0.82861 -1.23121,-1.06104 0.35162,-1.07605 1.11041,-0.0105 3.50103,-1.18497 5.3125,-2.60987 1.81146,-1.42489 3.29357,-2.00536 3.29357,-1.28992 0,0.71544 -1.54688,2.14 -3.4375,3.16568 -2.98215,1.61785 -3.09659,1.8715 -0.86391,1.91492 4.78292,0.093 8.92421,-5.26518 6.76705,-8.75554 -0.88848,-1.4376 -1.55412,-1.43571 -4.25935,0.0121 -1.76346,0.94373 -3.20629,2.46461 -3.20629,3.37968 0,0.91508 -0.51649,1.66378 -1.14777,1.66378 -0.63127,0 -2.08702,0.36042 -3.23499,0.80094 -3.30271,1.26737 -1.83743,-4.91472 1.51347,-6.3854 1.52514,-0.66937 2.92063,-2.55351 3.125,-4.21929 0.26678,-2.1743 1.55771,-3.40005 4.6504,-4.41554 2.35462,-0.77314 4.55439,-2.23942 4.8884,-3.25839 0.43887,-1.3389 -0.0201,-1.22533 -1.65496,0.40956 -2.15246,2.15246 -3.61774,2.19542 -8.33912,0.24453 -2.53758,-1.04853 -4.53104,3.84298 -2.4246,5.94942 0.75579,0.75579 1.35628,1.96479 1.33442,2.68667 -0.0659,2.17519 -3.71025,-3.37287 -3.71025,-5.64836 0,-3.41435 3.37864,-5.48136 6.59952,-4.03749 2.99894,1.34438 5.90048,0.86206 5.90048,-0.98082 0,-1.7439 -12.01457,-1.37133 -13.43641,0.41667 -1.26689,1.59314 -1.21783,3.32953 0.24284,8.59544 0.79491,2.86572 0.75677,2.88419 -1.11671,0.54065 -2.66084,-3.32846 -2.43155,-7.70676 0.56028,-10.69859 1.60256,-1.60256 1.91667,-2.5 0.875,-2.5 -4.94368,0 -6.25926,8.83523 -2.10245,14.11975 2.44509,3.10843 2.45142,3.25754 0.20624,4.85608 -2.07475,1.47718 -2.1434,2.06918 -0.65829,5.67656 1.18191,2.87091 2.22961,3.80805 3.64857,3.26355 1.60105,-0.61439 1.6643,-0.97066 0.32324,-1.82075 z m -8.54231,0.15481 c 0,-0.6875 -0.5625,-1.25 -1.25,-1.25 -0.6875,0 -1.25,0.5625 -1.25,1.25 0,0.6875 0.5625,1.25 1.25,1.25 0.6875,0 1.25,-0.5625 1.25,-1.25 z m -4.6875,-0.82785 c -0.85938,-0.34677 -1.55389,-1.56798 -1.54336,-2.71382 0.015,-1.63165 0.25016,-1.71882 1.08468,-0.40205 0.78848,1.24412 1.27499,0.84676 1.87107,-1.52821 0.70061,-2.79148 1.29196,-3.1122 4.54032,-2.46253 2.05413,0.41083 3.73479,0.37561 3.73479,-0.0783 0,-1.62745 -4.0631,-6.98727 -5.29682,-6.98727 -0.76019,0 -0.68975,0.68625 0.17772,1.73149 1.14682,1.38183 0.54665,2.25683 -2.97194,4.33285 -5.21658,3.07785 -6.17604,9.18589 -1.38813,8.83698 0.75598,-0.0551 0.66395,-0.3772 -0.20833,-0.72917 z m 6.5625,-1.67215 c -0.4249,-0.6875 -1.44247,-1.24139 -2.26127,-1.23086 -0.89452,0.0115 -0.74035,0.50278 0.38627,1.23086 2.4014,1.55191 2.83413,1.55191 1.875,0 z m 30.625,-8.15954 c 0,-1.01011 -0.75887,-1.47079 -1.77835,-1.07958 -0.9781,0.37533 -2.94685,-0.48608 -4.375,-1.91423 -1.43996,-1.43996 -2.59665,-1.92154 -2.59665,-1.08111 0,1.86487 6.51633,7.2174 7.81188,6.41671 0.51597,-0.31889 0.93812,-1.37269 0.93812,-2.34179 z m -49.375,0.65954 c -0.4249,-0.6875 -1.33504,-1.25 -2.02254,-1.25 -0.6875,0 -0.90236,0.5625 -0.47746,1.25 0.4249,0.6875 1.33504,1.25 2.02254,1.25 0.6875,0 0.90236,-0.5625 0.47746,-1.25 z m 14.375,-1.96296 c 0,-0.34375 -1.125,-0.0229 -2.5,0.71296 -1.375,0.73588 -2.5,1.61921 -2.5,1.96296 0,0.34375 1.125,0.0229 2.5,-0.71296 1.375,-0.73588 2.5,-1.61921 2.5,-1.96296 z m 23.47077,-3.66204 c 0.33943,-2.2854 0.25472,-2.31222 -0.98684,-0.3125 -0.74699,1.20312 -1.9259,2.1875 -2.61981,2.1875 -0.69392,0 -0.918,-0.55606 -0.49797,-1.23568 0.43731,-0.70759 -0.0623,-0.91872 -1.16905,-0.49402 -2.73929,1.05116 -0.99742,3.19944 2.22058,2.73868 1.55368,-0.22246 2.83797,-1.43561 3.05309,-2.88398 z m -29.00648,-0.60714 c 0,-1.468 -0.45893,-2.02322 -1.12323,-1.35892 -0.61778,0.61778 -0.74529,1.73474 -0.28337,2.48214 1.17533,1.90174 1.4066,1.71706 1.4066,-1.12322 z m 39.28571,1.27137 c 0,-0.66592 -0.84375,-0.88699 -1.875,-0.49126 -1.03125,0.39572 -1.875,0.94057 -1.875,1.21077 0,0.27019 0.84375,0.49126 1.875,0.49126 1.03125,0 1.875,-0.54485 1.875,-1.21077 z m -57.5,-8.58033 c 0,-1.63505 -0.80535,-2.20178 -2.8125,-1.97917 -1.54688,0.17157 -4.07813,0.35881 -5.625,0.4161 -1.54688,0.0573 -2.8125,0.6313 -2.8125,1.27558 0,0.64428 1.89724,0.86353 4.21608,0.48724 2.46845,-0.40058 4.57162,-0.10893 5.07378,0.70358 1.25283,2.02713 1.96014,1.70116 1.96014,-0.90333 z m 37.53296,-5.74721 c -1.58624,-4.17212 -6.11296,-4.00977 -7.68758,0.27571 -0.88889,2.4192 -0.73731,2.68644 0.97898,1.72595 2.41756,-1.35293 6.67564,-0.46582 6.67564,1.39077 0,0.7219 0.29699,1.01556 0.65997,0.65257 0.36299,-0.36298 0.0808,-2.18324 -0.62701,-4.045 z m 9.96704,3.03831 c 0,-0.6875 -0.5957,-1.25 -1.32377,-1.25 -0.72808,0 -0.97613,0.5625 -0.55123,1.25 0.4249,0.6875 1.02059,1.25 1.32377,1.25 0.30318,0 0.55123,-0.5625 0.55123,-1.25 z m -53.75,-0.55123 c 0,-1.31934 -2.39889,-1.87364 -3.1124,-0.71916 -0.43183,0.69871 0.0918,1.27039 1.16363,1.27039 1.07182,0 1.94877,-0.24805 1.94877,-0.55123 z m 14.85197,-0.38627 c -0.39741,-2.51693 0.34434,-3.93049 2.33553,-4.45084 1.6891,-0.44141 1.56351,-0.60469 -0.55123,-0.71666 -3.13343,-0.1659 -4.67706,1.64275 -3.66127,4.28986 0.7193,1.87446 2.13919,2.53838 1.87697,0.87764 z m 19.5898,-6.85006 c -1.1711,-0.65538 -2.49267,-0.8282 -2.93682,-0.38405 -1.09993,1.09992 2.45958,3.18656 3.90839,2.29115 0.63673,-0.39352 0.19953,-1.25172 -0.97157,-1.9071 z m -25.69177,107.78227 c 11.95281,-10.5934 30.4113,-18.13891 42.35423,-17.31367 5.34553,0.36937 6.28557,0.12893 5.59493,-1.43104 -2.49567,-5.637 -1.01523,-18.75 2.11684,-18.75 0.63763,0 0.59578,1.38438 -0.0969,3.20637 -1.5392,4.04841 -1.54847,13.08721 -0.0159,15.51064 1.59933,2.52899 -0.66685,3.71284 -5.5808,2.91542 -9.03435,-1.46607 -27.99745,4.90978 -37.40171,12.57536 -2.80261,2.28445 -6.5019,4.83097 -8.22065,5.65895 -2.46125,1.18565 -2.19575,0.68184 1.25,-2.37203 z m 70,-8.74471 c 0,-0.6875 -0.82396,-1.25 -1.83103,-1.25 -1.82136,0 -4.41897,-3.62564 -4.41897,-6.16782 0,-2.30431 2.29522,-1.44658 3.125,1.16782 0.43641,1.375 1.59931,2.5 2.58424,2.5 0.98491,0 1.79076,0.23524 1.79076,0.52277 0,0.28752 0.34142,1.41252 0.75874,2.49999 0.4173,1.08749 0.13605,1.97724 -0.625,1.97724 -0.76107,0 -1.38374,-0.5625 -1.38374,-1.25 z m -113.71025,-5.3125 c 0.0219,-0.85938 0.84804,-2.63034 1.83593,-3.93548 1.48518,-1.96211 2.12759,-2.09794 3.71025,-0.78445 2.74381,2.27716 2.36053,4.6212 -0.89843,5.49457 -4.04486,1.08398 -4.69229,0.97608 -4.64775,-0.77464 z m 4.96025,-2.1875 c 0,-0.6875 -0.24805,-1.25 -0.55123,-1.25 -0.30318,0 -0.89887,0.5625 -1.32377,1.25 -0.4249,0.6875 -0.17685,1.25 0.55123,1.25 0.72807,0 1.32377,-0.5625 1.32377,-1.25 z m 110.3125,0.0706 c -3.17949,-2.65243 -3.67112,-4.07157 -1.06394,-3.0711 0.96171,0.36904 2.1199,0.0701 2.57378,-0.66423 0.45386,-0.73437 0.22951,-1.33522 -0.49857,-1.33522 -0.72807,0 -1.32377,-0.57695 -1.32377,-1.2821 0,-0.70516 1.82812,-0.29937 4.0625,0.90174 3.76076,2.02163 3.8536,2.21616 1.25,2.61903 -2.73726,0.42356 -4.06009,2.76133 -1.5625,2.76133 0.6875,0 1.25,0.5625 1.25,1.25 0,1.84433 -1.5219,1.46139 -4.6875,-1.17945 z m -120.3125,-3.57055 c 0,-0.55 0.675,-1.675 1.5,-2.5 1.16667,-1.16667 0.95833,-1.50883 -0.9375,-1.53975 -2.41166,-0.0393 -2.41178,-0.0592 -0.0111,-1.875 3.12395,-2.36284 4.9117,-2.34506 3.99656,0.0397 -0.46587,1.21404 0.0378,1.88479 1.42876,1.90279 1.70774,0.0221 1.50743,0.5291 -0.97669,2.47221 -3.34328,2.61515 -5,3.11216 -5,1.5 z m 49.375,-2.58586 c 4.20841,-2.60663 5.52177,-2.42707 3.15007,0.43065 -0.86965,1.04787 -2.77793,1.90225 -4.24063,1.89863 -2.32384,-0.006 -2.18622,-0.29969 1.09056,-2.32928 z m 77.85204,-1.62961 c -0.54198,-1.37481 -1.70615,-1.85981 -3.40058,-1.41671 -1.46597,0.38336 -2.57646,0.0722 -2.57646,-0.72203 0,-0.76769 0.8261,-1.39579 1.83577,-1.39579 1.08757,0 1.55314,-0.7365 1.14233,-1.80706 -0.58383,-1.52144 -0.0838,-1.57691 3.16424,-0.35095 3.63337,1.37144 5.24643,3.40801 2.69931,3.40801 -0.63709,0 -1.35683,0.98437 -1.59942,2.1875 -0.40435,2.00533 -0.50972,2.01341 -1.26519,0.097 z m -70.34511,-3.54219 c 1.24818,-1.37922 2.54051,-2.23656 2.87187,-1.90521 0.83991,0.83991 -2.27778,4.41287 -3.85059,4.41287 -0.70987,0 -0.26945,-1.12845 0.97872,-2.50766 z m -57.75175,-2.14154 c -2.98187,-0.37255 -3.80731,-0.98772 -3.25535,-2.42611 0.4067,-1.05985 -0.0156,-2.39365 -0.93842,-2.96399 -1.30479,-0.80641 -0.99785,-1.60297 1.38035,-3.58226 3.9456,-3.28379 5.99155,-3.36972 3.05824,-0.12844 -1.42018,1.56928 -1.69363,2.5 -0.7345,2.5 0.95912,0 1.23257,0.93072 0.7345,2.5 -0.61881,1.9497 -0.22463,2.5 1.79076,2.5 1.42133,0 2.58424,0.5625 2.58424,1.25 0,0.6875 -0.14063,1.15998 -0.3125,1.04995 -0.17188,-0.11002 -2.11017,-0.42464 -4.30732,-0.69915 z m 126.80732,-4.92865 c 0.85937,-0.34677 1.5625,-2.03264 1.5625,-3.74639 l 0,-3.11591 3.58752,2.90758 c 4.42727,3.58815 3.87898,4.81175 -2.09879,4.68389 -2.53756,-0.0543 -3.91061,-0.38241 -3.05123,-0.72917 z m -132.06534,-7.84665 c -2.28162,-1.41012 -1.17907,-5.58308 1.61741,-6.12164 2.12164,-0.40859 4.44306,1.5631 4.49129,3.81466 0.0349,1.62666 -4.46178,3.32483 -6.1087,2.30698 z m 3.00284,-2.5755 c 0.4249,-0.6875 0.17684,-1.25 -0.55123,-1.25 -0.72807,0 -1.32377,0.5625 -1.32377,1.25 0,0.6875 0.24805,1.25 0.55123,1.25 0.30317,0 0.89887,-0.5625 1.32377,-1.25 z m 134.77934,1.66645 c -0.46584,-1.2603 -1.43475,-2.68307 -2.15313,-3.16171 -1.80482,-1.20251 2.46781,-2.72596 4.96146,-1.76907 2.2743,0.87274 1.97332,5.92643 -0.39951,6.70787 -0.85901,0.28289 -1.94299,-0.5168 -2.40882,-1.77709 z m -139.77934,-9.16645 c -0.4249,-0.6875 -0.10797,-1.25 0.70428,-1.25 1.04145,0 0.97107,-0.62177 -0.23872,-2.10904 -1.51793,-1.86607 -1.43907,-2.0052 0.6845,-1.20766 1.45955,0.54815 2.77997,0.28667 3.36954,-0.66726 0.53321,-0.86275 1.36146,-1.17665 1.84056,-0.69755 0.4791,0.4791 0.15956,1.72844 -0.71009,2.7763 -1.08131,1.3029 -1.13762,1.90521 -0.17813,1.90521 0.77168,0 1.40306,0.5625 1.40306,1.25 0,0.6875 -1.37305,1.25 -3.05123,1.25 -1.67817,0 -3.39887,-0.5625 -3.82377,-1.25 z m 139.46477,0.0555 c -0.85717,-0.52977 -1.36866,-2.30585 -1.13663,-3.94685 0.61249,-4.33187 5.29303,-4.09455 5.80198,0.29418 0.40282,3.47357 -1.96082,5.32415 -4.66535,3.65267 z m -139.39505,-9.94269 c -1.0414,-1.685 0.58123,-5.1128 2.42025,-5.1128 0.87863,0 2.51891,1.40625 3.64508,3.125 2.02531,3.091 2.00727,3.125 -1.65746,3.125 -2.03778,0 -4.02132,-0.51174 -4.40787,-1.1372 z m 45.55528,-1.21526 c 0,-0.6875 0.5625,-1.59764 1.25,-2.02254 0.6875,-0.4249 1.25,-0.21004 1.25,0.47746 0,0.6875 -0.5625,1.59764 -1.25,2.02254 -0.6875,0.4249 -1.25,0.21004 -1.25,-0.47746 z m -42.5,-6.39754 c -1.46109,-0.94423 -1.11617,-1.21594 1.5625,-1.23086 1.89062,-0.0105 3.4375,0.54336 3.4375,1.23086 0,1.58051 -2.55433,1.58051 -5,0 z m 0.54386,-8.125 c 0.3696,-1.375 0.67968,-2.92188 0.68907,-3.4375 0.0333,-1.83078 2.51707,-0.90569 2.51707,0.9375 0,1.03125 0.84375,1.875 1.875,1.875 1.03125,0 1.875,0.70312 1.875,1.5625 0,0.90861 -1.59615,1.5625 -3.81407,1.5625 -3.20473,0 -3.70671,-0.3994 -3.14207,-2.5 z m 36.95614,1.14587 c -1.94717,-1.08046 -2.39057,-1.74096 -1.17641,-1.75244 1.07172,-0.0101 3.04047,0.80743 4.375,1.81682 3.03397,2.29477 0.97847,2.2534 -3.19859,-0.0644 z m 21.58629,1.11289 c 1.21621,-0.31693 2.90371,-0.29609 3.75,0.0463 0.84629,0.34241 -0.14879,0.60172 -2.21129,0.57624 -2.0625,-0.0255 -2.75492,-0.30562 -1.53871,-0.62255 z m -53.42548,-8.328 c -1.45648,-1.06501 -2.01501,-2.48123 -1.50387,-3.81326 0.67281,-1.75329 1.11669,-1.83842 2.5719,-0.49326 0.96732,0.89417 1.50335,2.04763 1.19119,2.56326 -0.31217,0.51562 -0.0187,0.9375 0.65203,0.9375 0.67078,0 1.50332,-0.70313 1.85009,-1.5625 0.34676,-0.85938 0.67489,-0.29688 0.72917,1.25 0.1116,3.18065 -2.06403,3.62376 -5.49051,1.11826 z m 120.23726,-2.36826 c -0.80062,-2.23287 1.36877,-5.9375 3.47693,-5.9375 2.62139,0 4.60598,4.26902 2.8165,6.0585 -1.90993,1.90993 -5.59058,1.83916 -6.29343,-0.121 z m 5.35193,-2.26127 c 0,-0.64693 -0.84375,-1.17623 -1.875,-1.17623 -1.93301,0 -2.48338,1.47495 -1.07565,2.88268 0.99866,0.99867 2.95065,-0.13023 2.95065,-1.70645 z M 389.02245,320.6181 c -3.84017,-3.19918 -1.41103,-3.23696 2.67402,-0.0416 1.71875,1.34443 2.48419,2.45692 1.70098,2.47221 -0.78321,0.0153 -2.75196,-1.0785 -4.375,-2.43062 z m 113.78859,-2.61443 c 1.64428,-1.36932 3.33089,-2.14837 3.74804,-1.73121 0.88774,0.88773 -3.47605,4.32335 -5.41402,4.26246 -0.72798,-0.0229 0.0217,-1.16193 1.66598,-2.53125 z m -108.30207,-0.8062 c -2.14429,-0.79499 -2.00399,-6.62096 0.15944,-6.62096 0.94707,0 2.44563,0.87198 3.33013,1.93773 1.31808,1.5882 1.28932,2.23761 -0.15945,3.60013 -0.97219,0.91432 -2.47075,1.40171 -3.33012,1.0831 z m 2.1875,-2.87096 c 0,-0.6875 -0.5625,-1.25 -1.25,-1.25 -0.6875,0 -1.25,0.5625 -1.25,1.25 0,0.6875 0.5625,1.25 1.25,1.25 0.6875,0 1.25,-0.5625 1.25,-1.25 z m 101.82801,1.39803 c 0.479,-1.50916 0.0329,-2.62581 -1.24499,-3.11617 -1.09531,-0.42031 -1.60413,-1.39094 -1.13071,-2.15695 0.58203,-0.94174 5.1e-4,-1.11971 -1.79577,-0.54959 -3.74146,1.18749 -3.31771,-1.12279 0.52727,-2.87468 4.18233,-1.90559 4.31619,-1.87304 4.31619,1.04936 0,1.38889 0.83334,2.5 1.875,2.5 2.25454,0 2.27875,0.24624 0.42435,4.31618 -1.67233,3.67036 -4.08678,4.3463 -2.97134,0.83185 z m -10.14134,-10.733 c 0.38728,-1.00923 0.21425,-2.13774 -0.3845,-2.50779 -0.59875,-0.37005 -1.34093,0.0338 -1.64928,0.89747 -0.30834,0.86366 -0.93295,1.2281 -1.38801,0.80987 -0.45507,-0.41823 0.29296,-2.10573 1.66228,-3.75 2.19508,-2.63584 2.49459,-2.71492 2.53125,-0.66834 0.0276,1.54196 0.67106,2.07968 1.91659,1.60173 2.294,-0.88029 2.34497,0.35317 0.13494,3.26453 -2.01883,2.65948 -3.79357,2.88109 -2.82327,0.35253 z m -71.41598,-8.69511 c -1.08261,-2.37607 -0.99445,-3.35055 0.40844,-4.51484 2.26825,-1.88248 5.57087,-0.6768 5.57087,2.03374 0,1.78229 -0.28707,1.83078 -2.08234,0.35174 -1.87725,-1.54659 -1.99802,-1.37699 -1.22619,1.72194 1.05775,4.24691 -0.79277,4.52921 -2.67078,0.40742 z m 53.61991,0.98566 c 0.9332,-1.12443 1.7052,-2.90413 1.71556,-3.95489 0.0104,-1.05076 0.72196,-2.1464 1.58134,-2.43475 2.41219,-0.80938 1.86278,4.02484 -0.72343,6.36532 -2.948,2.66791 -4.78183,2.68524 -2.57347,0.0243 z m 8.31847,0.53113 c 0.87123,-1.05591 1.22578,-2.8535 0.78789,-3.99464 -0.69929,-1.82231 -0.39767,-1.89323 2.47843,-0.5828 3.81507,1.73827 4.1495,2.99055 1.08711,4.07074 -1.20313,0.42438 -3.03125,1.14396 -4.0625,1.59907 -1.55571,0.68656 -1.60525,0.50055 -0.29093,-1.09237 z m -52.18993,-3.64615 c 0.0105,-1.63106 0.58446,-3.80931 1.27539,-4.84056 1.07113,-1.59869 1.62554,-1.43444 3.76212,1.11458 1.37822,1.64427 2.16455,3.33088 1.7474,3.74803 -0.41715,0.41715 -1.63189,-0.36566 -2.69942,-1.73958 -1.43215,-1.84319 -1.75252,-1.94855 -1.2221,-0.40192 0.39538,1.15286 -0.0915,2.76861 -1.08183,3.59055 -1.482,1.22995 -1.79731,0.96958 -1.78156,-1.4711 z m 39.67492,-2.96556 c 0.32856,-1.71875 1.09431,-3.125 1.70166,-3.125 1.28978,0 1.41082,1.4967 0.34554,4.27277 -1.20364,3.13663 -2.70528,2.29474 -2.0472,-1.14777 z m -29.01918,-0.99571 c -1.10961,-3.97784 -0.0823,-5.78672 2.06621,-3.6382 1.05734,1.05734 1.89705,1.07793 3.10417,0.0761 1.28731,-1.06837 1.65474,-0.76551 1.65474,1.36398 0,2.12977 -0.53229,2.56835 -2.39834,1.97609 -1.67308,-0.53102 -2.5576,-0.084 -2.92499,1.47826 -0.40147,1.70712 -0.75846,1.40849 -1.50179,-1.25624 z m 11.40845,2.03738 c -0.45833,-0.45834 -0.83333,-2.14584 -0.83333,-3.75 0,-2.38364 0.62821,-2.89017 3.4375,-2.77167 2.11112,0.089 2.59421,0.36543 1.25199,0.71627 -1.94165,0.50753 -1.97652,0.78027 -0.3125,2.44429 1.03015,1.03016 1.87301,2.39533 1.87301,3.03373 0,1.32889 -4.16351,1.58054 -5.41667,0.32738 z m 8.37881,-1.97917 c 0.41455,-1.54688 0.7614,-3.27228 0.77079,-3.83423 0.0146,-0.87431 4.81911,-0.0171 6.0687,1.08281 0.23465,0.20654 -0.005,1.68353 -0.53304,3.28222 l -0.95967,2.9067 -0.91817,-3.125 -0.91817,-3.125 -0.88208,2.8125 c -0.48514,1.54687 -1.44458,2.8125 -2.13208,2.8125 -0.6875,0 -0.91082,-1.26563 -0.49628,-2.8125 z"
       id="path4758"
       inkscape:connector-curvature="0" />
  </g>
</svg>
